<svg width="53" height="48" viewBox="0 0 53 48" fill="none" xmlns="http://www.w3.org/2000/svg">
<path d="M26.4998 44C38.6961 44 48.5832 35.0457 48.5832 24C48.5832 12.9543 38.6961 4 26.4998 4C14.3035 4 4.4165 12.9543 4.4165 24C4.4165 35.0457 14.3035 44 26.4998 44Z" stroke="white" stroke-width="4" stroke-linecap="round" stroke-linejoin="round"/>
<path d="M26.4998 36C33.8176 36 39.7498 30.6274 39.7498 24C39.7498 17.3726 33.8176 12 26.4998 12C19.1821 12 13.2498 17.3726 13.2498 24C13.2498 30.6274 19.1821 36 26.4998 36Z" stroke="white" stroke-width="4" stroke-linecap="round" stroke-linejoin="round"/>
<path d="M26.4998 28C28.9391 28 30.9165 26.2091 30.9165 24C30.9165 21.7909 28.9391 20 26.4998 20C24.0606 20 22.0832 21.7909 22.0832 24C22.0832 26.2091 24.0606 28 26.4998 28Z" stroke="white" stroke-width="4" stroke-linecap="round" stroke-linejoin="round"/>
</svg>
